<?xml version="1.0" standalone="no"?>
<!DOCTYPE svg PUBLIC "-//W3C//DTD SVG 20010904//EN"
 "http://www.w3.org/TR/2001/REC-SVG-20010904/DTD/svg10.dtd">
<svg version="1.0" xmlns="http://www.w3.org/2000/svg"
 width="1024.000000pt" height="1024.000000pt" viewBox="0 0 1024.000000 1024.000000"
 preserveAspectRatio="xMidYMid meet">

<g transform="translate(0.000000,1024.000000) scale(0.100000,-0.100000)"
fill="#000000" stroke="none">
<path d="M4870 7240 c-438 -40 -884 -231 -1195 -513 l-47 -42 97 -90 98 -90
166 -7 c206 -8 256 -14 351 -45 290 -94 486 -299 567 -594 17 -59 18 -127 18
-829 l0 -765 -24 -75 c-73 -233 -224 -410 -448 -523 -112 -57 -180 -69 -415
-74 l-217 -5 -54 -47 c-29 -25 -72 -62 -96 -81 l-42 -35 99 -76 c228 -178 445
-292 713 -378 230 -73 333 -86 654 -86 280 1 405 20 637 95 227 73 475 203
627 327 18 16 52 43 75 62 82 66 263 250 347 351 111 134 300 463 330 574 6
23 19 58 30 80 10 21 26 70 35 110 9 39 24 100 35 136 40 141 64 371 55 530
-9 159 -38 317 -101 542 -44 159 -168 417 -285 593 -143 214 -384 449 -627
611 -172 115 -520 268 -653 287 -19 3 -42 7 -50 11 -21 8 -62 15 -195 37 -87
14 -374 19 -485 9z m629 -296 c57 -40 59 -134 3 -170 -31 -20 -34 -20 -525
-16 l-309 2 -29 29 c-40 41 -41 97 0 140 l29 31 404 0 c357 0 406 -2 427 -16z
m519 -459 c184 -30 328 -104 462 -235 158 -156 230 -327 229 -545 0 -144 -32
-255 -107 -374 -42 -67 -128 -153 -193 -193 -52 -32 -60 -45 -31 -55 42 -15
134 -87 186 -144 79 -88 151 -236 171 -353 48 -284 -19 -511 -221 -738 -86
-98 -254 -196 -399 -235 -67 -18 -165 -22 -552 -22 l-433 -1 0 1455 0 1455
398 0 c306 0 418 -4 490 -15z m986 -1405 c58 -22 69 -110 19 -150 -73 -57
-177 17 -142 102 19 47 72 68 123 48z m-1507 -1757 c62 -41 62 -136 0 -173
-30 -19 -53 -20 -422 -20 -428 0 -418 -1 -450 60 -28 55 -13 109 40 138 14 8
147 11 413 12 353 0 395 -2 419 -17z"/>
<path d="M5420 5735 l0 -496 279 1 c292 1 354 8 449 50 134 60 225 179 267
348 19 78 19 97 1 165 -34 132 -113 248 -215 315 -68 46 -112 65 -214 92 -68
17 -107 20 -322 20 l-245 0 0 -495z"/>
<path d="M5420 4415 l0 -557 288 4 c281 4 289 5 367 32 155 53 254 140 328
287 55 111 70 194 56 315 -10 93 -64 213 -129 286 -48 55 -148 120 -239 156
-65 25 -71 26 -368 30 l-303 4 0 -557z"/>
<path d="M3415 6476 c-6 -7 -35 -45 -65 -82 -123 -152 -255 -389 -332 -594
-42 -112 -104 -365 -113 -465 -4 -33 -10 -101 -16 -152 -11 -115 -11 -216 1
-268 5 -22 11 -65 15 -95 24 -222 103 -483 216 -713 79 -161 135 -248 253
-391 l56 -69 0 1422 c0 781 -1 1421 -3 1421 -1 0 -7 -6 -12 -14z m-198 -1401
c31 -21 48 -78 32 -107 -28 -55 -76 -71 -129 -43 -58 30 -67 90 -21 136 33 33
82 39 118 14z"/>
<path d="M3720 5046 l0 -1186 183 0 c305 0 439 34 553 142 102 96 164 213 184
346 10 68 9 1382 -1 1412 -3 8 -13 40 -22 70 -46 152 -176 290 -322 343 -130
47 -143 49 -377 54 l-198 5 0 -1186z"/>
</g>
</svg>
