<?xml version="1.0" standalone="no"?>
<!DOCTYPE svg PUBLIC "-//W3C//DTD SVG 20010904//EN"
 "http://www.w3.org/TR/2001/REC-SVG-20010904/DTD/svg10.dtd">
<svg version="1.0" xmlns="http://www.w3.org/2000/svg"
 width="566.000000pt" height="566.000000pt" viewBox="0 0 566.000000 566.000000"
 preserveAspectRatio="xMidYMid meet">
<metadata>
Created by potrace 1.14, written by Peter Selinger 2001-2017
</metadata>
<g transform="translate(0.000000,566.000000) scale(0.100000,-0.100000)"
fill="#000000" stroke="none">
<path d="M2937 5643 c-2 -1 -72 -3 -157 -4 -157 -1 -385 -29 -530 -65 -36 -9
-76 -18 -90 -21 -103 -18 -356 -114 -545 -208 -300 -148 -544 -324 -770 -556
-214 -220 -362 -432 -505 -724 -173 -353 -233 -578 -270 -1010 -16 -199 -13
-315 15 -550 36 -296 137 -631 269 -892 84 -167 259 -431 379 -573 63 -75 263
-274 331 -329 355 -288 767 -493 1178 -585 62 -14 129 -27 148 -30 19 -2 73
-10 120 -17 93 -13 542 -17 625 -5 352 52 570 114 850 244 149 68 369 198 450
263 11 9 76 62 145 117 364 291 654 686 835 1137 65 163 96 264 134 435 43
193 52 268 67 550 5 101 -10 305 -30 410 -3 14 -10 60 -16 103 -37 253 -163
611 -307 872 -229 414 -586 786 -987 1030 -207 126 -577 285 -745 320 -9 2
-45 10 -81 19 -36 8 -78 17 -95 20 -16 3 -59 10 -95 16 -73 12 -319 38 -323
33z"/>
</g>
</svg>
